<svg viewBox="0 0 24 24" id="calendar--filled">
  <g transform="translate(-118 -621)">
    <rect width="24" height="24" transform="translate(118 621)" fill="none"></rect>
    <path d="M149.452,380.063v11.1a2.2,2.2,0,0,1-2.271,2.119H129.4a2.2,2.2,0,0,1-2.271-2.119v-11.1a.739.739,0,0,1,.739-.739h20.842A.739.739,0,0,1,149.452,380.063Zm-2.271-7.718h-2.323v-2.326a.739.739,0,0,0-1.478,0v2.326H133.2v-2.326a.739.739,0,0,0-1.478,0v2.326H129.4a2.274,2.274,0,0,0-2.271,2.271v2.529a.739.739,0,0,0,.739.739h20.842a.739.739,0,0,0,.739-.739v-2.529a2.274,2.274,0,0,0-2.271-2.272Z" transform="translate(-8.332 251.72)"></path>
  </g>
</svg>