<svg xmlns="http://www.w3.org/2000/svg" width="24" height="24" viewBox="0 0 24 24">
  <g transform="translate(-167 -627)">
    <rect width="24" height="24" transform="translate(167 627)" fill="none"/>
    <path d="M3733.137,2655.938a7.962,7.962,0,1,0-7.962,7.962,7.962,7.962,0,0,0,7.962-7.962Zm-7.962,5.326a5.326,5.326,0,1,1,5.326-5.326,5.326,5.326,0,0,1-5.326,5.326Zm9.808,6.042a1.318,1.318,0,0,1-1.862-.085l-2.649-2.9a1.318,1.318,0,1,1,1.947-1.777l2.65,2.9a1.318,1.318,0,0,1-.083,1.863Zm-18.276-16.916a1.153,1.153,0,0,1-1.153,1.153h-2.986a1.153,1.153,0,1,1,0-2.306h2.986a1.153,1.153,0,0,1,1.154,1.156Zm-5.293,5.585a1.153,1.153,0,0,1,1.153-1.153h2.344a1.153,1.153,0,0,1,0,2.307h-2.344a1.154,1.154,0,0,1-1.152-1.151Zm5.293,5.51a1.153,1.153,0,0,1-1.153,1.153h-2.986a1.153,1.153,0,0,1,0-2.307h2.986a1.153,1.153,0,0,1,1.154,1.155Z" transform="translate(-3544.415 -2018.877)"/>
  </g>
</svg>
