<svg xmlns="http://www.w3.org/2000/svg" width="24" height="24" viewBox="0 0 24 24">
  <g transform="translate(757 292)">
    <rect width="24" height="24" transform="translate(-757 -292)" fill="none"/>
    <path d="M4040.508,2647.44a7.793,7.793,0,1,0-7.793,7.793A7.793,7.793,0,0,0,4040.508,2647.44Zm-7.793,5.774a5.775,5.775,0,1,1,5.774-5.774,5.775,5.775,0,0,1-5.774,5.774Zm9.783,5.589a1.009,1.009,0,0,1-1.425-.076l-3.168-3.525a1.009,1.009,0,0,1,1.5-1.349l3.168,3.526a1.01,1.01,0,0,1-.077,1.424Zm-22.656-17.028h3.233m.063,1.01h-3.3a1.009,1.009,0,0,1,0-2.019h3.3a1.009,1.009,0,0,1,0,2.019Zm-.709,5.7h-2.586a1.009,1.009,0,0,1,0-2.019h2.586a1.009,1.009,0,1,1,0,2.019Zm.709,5.626h-3.3a1.009,1.009,0,0,1,0-2.019h3.3a1.009,1.009,0,0,1,0,2.019Z" transform="translate(-4775.831 -2929.347)"/>
  </g>
</svg>
