<svg xmlns="http://www.w3.org/2000/svg" width="24" height="24" viewBox="0 0 24 24">
  <g id="clients_fill" transform="translate(-149 -618)">
    <rect id="Прямоугольник_10015" data-name="Прямоугольник 10015" width="24" height="24" transform="translate(149 618)" fill="none"/>
    <path id="Безымянный-1" d="M366.354,296.334c0-3.479,2.45-6.2,5.578-6.2,3.083,0,5.5,2.782,5.5,6.334,0,3.322-2.826,6.835-5.5,6.835C369.222,303.3,366.354,299.72,366.354,296.334Zm16.912,13.153a7.446,7.446,0,0,0-3.989-6.186,1.9,1.9,0,0,0-2.011.145h0c-1.148.831-4.188,2.66-7.6,1.709a7.767,7.767,0,0,1-2.952-1.589,1.913,1.913,0,0,0-2.135-.221,7.553,7.553,0,0,0-4.062,6.243,1.513,1.513,0,0,0,.489,1.13c1.334,1.43,6.094,3.412,10.838,3.412h.051c4.783-.015,9.567-2.045,10.892-3.495a1.524,1.524,0,0,0,.479-1.149Z" transform="translate(-210.917 327.869)" fill="#101928"/>
  </g>
</svg>
