<svg xmlns="http://www.w3.org/2000/svg" width="24" height="24" viewBox="0 0 24 24">
  <g id="clients" transform="translate(-168 -619)">
    <path id="Безымянный-1" d="M4010.413,2649.851c2.672,0,5.5-3.513,5.5-6.835,0-3.551-2.415-6.333-5.5-6.333-3.128,0-5.578,2.725-5.578,6.2C4004.833,2646.271,4007.7,2649.851,4010.413,2649.851Zm0-11.747c2.285,0,4.076,2.157,4.076,4.911,0,2.686-2.37,5.414-4.076,5.414-1.776,0-4.156-2.741-4.156-5.544,0-2.725,1.786-4.778,4.156-4.778Zm10.853,19.084c-1.324,1.449-6.109,3.48-10.891,3.494h-.052c-4.742,0-9.5-1.983-10.837-3.412a1.516,1.516,0,0,1-.489-1.13,7.651,7.651,0,0,1,4.968-6.654.711.711,0,0,1,.452,1.348,6.235,6.235,0,0,0-4,5.339c.423.79,4.916,3.087,9.9,3.087h.049c5.047-.015,9.55-2.366,9.953-3.165a5.986,5.986,0,0,0-3.841-5.258.711.711,0,1,1,.425-1.357,7.394,7.394,0,0,1,4.838,6.556,1.524,1.524,0,0,1-.478,1.154Z" transform="translate(-3829.997 -2017.682)" fill="#101928"/>
    <rect id="Прямоугольник_10584" data-name="Прямоугольник 10584" width="24" height="24" transform="translate(168 619)" fill="none"/>
  </g>
</svg>
