<svg xmlns="http://www.w3.org/2000/svg" width="24" height="24" viewBox="0 0 24 24">
  <g transform="translate(-72 -544)">
    <rect width="24" height="24" transform="translate(72 544)" fill="none"/>
    <path d="M4044.511,2652.552a1,1,0,0,1-1.413-.062l-.253-.276v9.309a2.334,2.334,0,0,1-2.33,2.33h-3.345a2.333,2.333,0,0,1-2.33-2.33v-3.675h-4.008v3.675a2.333,2.333,0,0,1-2.33,2.33h-3.337a2.333,2.333,0,0,1-2.33-2.33v-9.32l-.263.287a1,1,0,1,1-1.474-1.352l9.12-9.944a3.576,3.576,0,0,1,2.621-1.133h0a3.566,3.566,0,0,1,2.609,1.121l9.124,9.956A1,1,0,0,1,4044.511,2652.552Z" transform="translate(-3948.835 -2095.962)"/>
  </g>
</svg>
