<svg xmlns="http://www.w3.org/2000/svg" width="24" height="24" viewBox="0 0 24 24">
  <g transform="translate(-5857 1489)">
    <rect width="24" height="24" transform="translate(5857 -1489)" fill="none"/>
    <path d="M4041.7,2628.759a9.087,9.087,0,0,1-3.346,4.882l-6.751,6.022a2.553,2.553,0,0,1-3.421-.014l-6.628-6.015a9.09,9.09,0,0,1-3.346-4.9,7.218,7.218,0,0,1-.209-2.659c.369-4.048,3.292-7,6.951-7a6.723,6.723,0,0,1,4.962,2.229,6.959,6.959,0,0,1,5.047-2.228c3.663,0,6.586,2.946,6.958,7A7.279,7.279,0,0,1,4041.7,2628.759Z" transform="translate(1839.048 -4107.075)"/>
  </g>
</svg>
