<svg xmlns="http://www.w3.org/2000/svg" width="24" height="24" viewBox="0 0 24 24">
  <g transform="translate(-168 -618)">
    <rect width="24" height="24" transform="translate(168 618)" fill="none"/>
    <path d="M4029.9,2640.313a2.55,2.55,0,0,1-1.718-.665l-6.628-6.015a9.09,9.09,0,0,1-3.346-4.9,7.214,7.214,0,0,1-.209-2.659c.369-4.048,3.292-7,6.951-7a6.725,6.725,0,0,1,4.962,2.229,6.96,6.96,0,0,1,5.047-2.228c3.663,0,6.586,2.946,6.958,7a7.279,7.279,0,0,1-.217,2.679,9.084,9.084,0,0,1-3.346,4.882l-6.751,6.022A2.55,2.55,0,0,1,4029.9,2640.313Zm-4.956-19.225c-2.589,0-4.67,2.178-4.942,5.18a5.289,5.289,0,0,0,.155,1.96,7.252,7.252,0,0,0,2.743,3.908l6.635,6.021a.542.542,0,0,0,.727,0l6.753-6.022c1.385-1.235,2.323-2.172,2.737-3.88a5.316,5.316,0,0,0,.164-1.974v-.014c-.273-3-2.354-5.18-4.948-5.18a4.928,4.928,0,0,0-4.2,2.423l-.89,1.516-.857-1.535a4.7,4.7,0,0,0-4.074-2.407Z" transform="translate(-3849.952 -1999.694)"/>
  </g>
</svg>
