<svg xmlns="http://www.w3.org/2000/svg" width="24" height="24" viewBox="0 0 24 24">
  <g id="Сгруппировать_6241" data-name="Сгруппировать 6241" transform="translate(-6091 1490)">
    <rect id="Прямоугольник_10470" data-name="Прямоугольник 10470" width="24" height="24" transform="translate(6091 -1490)" fill="none"/>
    <path id="Безымянный-1" d="M4024.933,2657.736h-19.5a1.25,1.25,0,0,1,0-2.5h19.5a1.25,1.25,0,0,1,0,2.5Zm1.249-9.817a1.249,1.249,0,0,0-1.249-1.249h-19.5a1.249,1.249,0,1,0,0,2.5h19.5a1.249,1.249,0,0,0,1.249-1.25Zm0,17.492a1.249,1.249,0,0,0-1.249-1.249h-19.5a1.25,1.25,0,0,0,0,2.5h19.5A1.25,1.25,0,0,0,4026.182,2665.411Z" transform="translate(2087.818 -4134.67)" fill="#101928"/>
  </g>
</svg>
