<svg xmlns="http://www.w3.org/2000/svg" width="24" height="24" viewBox="0 0 24 24">
  <g transform="translate(-311 -561)">
    <rect width="24" height="24" transform="translate(311 561)" fill="none"/>
    <path d="M4031.441,2636.811a5.177,5.177,0,0,1-3.752-2.16,1.011,1.011,0,1,1,1.636-1.189,3.219,3.219,0,0,0,2.117,1.326h.01a2.548,2.548,0,0,0,1.876-1.319,1.012,1.012,0,1,1,1.645,1.177,4.392,4.392,0,0,1-3.522,2.165Zm-.081-4.5c11.034-.08,11.374-4.319,11.376-4.8v-.05a3.285,3.285,0,0,0-2.205-2.866,5.038,5.038,0,0,1-2.005-3.571c-.191-8.081-6.9-8.208-7.208-8.209-.286,0-6.992.128-7.182,8.209a5.037,5.037,0,0,1-2.005,3.571,3.288,3.288,0,0,0-2.205,2.866v.05c0,.483.341,4.728,11.407,4.8Zm-8.486-5.837a1.006,1.006,0,0,0,.227-.1,7,7,0,0,0,3.055-5.28c.132-6.056,4.655-6.253,5.176-6.256s5.038.2,5.172,6.289a6.994,6.994,0,0,0,3.053,5.247,1.128,1.128,0,0,0,.217.1c.036.012.857.3.935,1.014-.152.8-2.08,2.751-9.364,2.8h-.014c-7.3-.05-9.229-2-9.381-2.8.078-.719.9-1,.927-1.015ZM4040.713,2627.551ZM4040.713,2627.551ZM4040.713,2627.5ZM4021.946,2627.5Z" transform="translate(-3708.33 -2051.811)"/>
  </g>
</svg>
