<svg xmlns="http://www.w3.org/2000/svg" width="24" height="24" viewBox="0 0 24 24">
  <g transform="translate(-24 4)">
    <rect width="24" height="24" transform="translate(24 -4)" fill="none"/>
    <path d="M3989.6,2672.424a4.388,4.388,0,0,1-3.519,2.163h-.01a5.174,5.174,0,0,1-3.749-2.159,1.006,1.006,0,1,1,1.628-1.183,3.228,3.228,0,0,0,2.122,1.329h.009a2.556,2.556,0,0,0,1.882-1.322,1.006,1.006,0,0,1,1.637,1.171Zm7.764-7.189a3.285,3.285,0,0,0-2.2-2.863,5.046,5.046,0,0,1-2.01-3.577c-.191-8.079-6.894-8.206-7.205-8.208-.286,0-6.989.128-7.178,8.208a5.044,5.044,0,0,1-2.01,3.577,3.283,3.283,0,0,0-2.2,2.863v.049c0,.483.342,4.724,11.406,4.8h.03c11.035-.079,11.373-4.316,11.375-4.8a.269.269,0,0,1,0-.049Z" transform="translate(-3950.058 -2654.587)"/>
  </g>
</svg>
