<svg xmlns="http://www.w3.org/2000/svg" width="24" height="24" viewBox="0 0 24 24">
  <g transform="translate(3690 645)">
    <rect width="24" height="24" transform="translate(-3690 -645)" fill="none"/>
    <path d="M3740.373,2643.75H3726.1a3.957,3.957,0,0,0-3.952,3.952v18.636a1.3,1.3,0,0,0,2.213.917l2.042-2.042,1.9,1.9a1.966,1.966,0,0,0,2.783,0l1.923-1.923,1.979,1.979a1.966,1.966,0,0,0,2.783,0l2.138-2.138,2.2,2.2a1.3,1.3,0,0,0,2.213-.917V2647.7A3.956,3.956,0,0,0,3740.373,2643.75Zm-2.062,14.156h0l-10.152-.041a1.072,1.072,0,1,1,0-2.145h0l10.152.041a1.072,1.072,0,0,1,0,2.145Zm0-4.153h0l-10.152-.03a1.072,1.072,0,1,1,0-2.145h0l10.152.031a1.072,1.072,0,1,1,0,2.145Z" transform="translate(-7411.144 -3288.75)"/>
  </g>
</svg>
