<svg xmlns="http://www.w3.org/2000/svg" width="24" height="24" viewBox="0 0 24 24">
  <g transform="translate(3688 660)">
    <rect width="24" height="24" transform="translate(-3688 -660)" fill="none"/>
    <path d="M3734.954,2666.783a1.662,1.662,0,0,1-.955-.493l-2.218-2.218-2.174,2.205a1.574,1.574,0,0,1-1.32.449,1.66,1.66,0,0,1-.955-.492l-2.143-2.144-2.329,2.36h0a1.043,1.043,0,0,1-.691.321,1.1,1.1,0,0,1-1.165-1.092V2646.77a3.973,3.973,0,0,1,3.974-3.974h14.094a3.974,3.974,0,0,1,3.974,3.974v18.842a1.132,1.132,0,0,1-.49.957,1.088,1.088,0,0,1-1.37-.14l-2.518-2.518-2.389,2.42A1.574,1.574,0,0,1,3734.954,2666.783Zm-12.82-1.06Zm9.663-3.7a2.028,2.028,0,0,1,1.438.594l1.924,1.924,2.083-2.083a2.032,2.032,0,0,1,2.875,0l.868.868v-16.9a1.576,1.576,0,0,0-1.576-1.576h-14.778a1.576,1.576,0,0,0-1.576,1.576v16.917l.709-.709a2.036,2.036,0,0,1,2.877,0l1.85,1.85,1.868-1.868a2.029,2.029,0,0,1,1.434-.594Zm6.314-10a1.028,1.028,0,0,0-1.024-1.031l-10.125-.03a1.028,1.028,0,1,0-.006,2.055l10.125.03h0a1.028,1.028,0,0,0,1.028-1.022Zm0,4.145a1.027,1.027,0,0,0-1.023-1.032l-10.125-.04h0a1.028,1.028,0,1,0,0,2.055l10.125.04h0a1.027,1.027,0,0,0,1.028-1.024Z" transform="translate(-7408.003 -3302.797)"/>
  </g>
</svg>
